<svg width="32" height="32" viewBox="0 0 32 32" xmlns="http://www.w3.org/2000/svg">
  <path fill="currentColor" d="M0,0 L32,0 L32,32 L0,32 L0,0 Z M8.10237821,10.9853719 L8.10237821,20.4170557 C8.1586956,20.7572917 8.05462535,21.104845 7.82204647,21.3532525 L5.64705882,24.0722067 L5.64705882,24.4307501 L11.8143571,24.4307501 L11.8143571,24.0722067 L9.63936947,21.3532525 C9.40508478,21.1052561 9.29457036,20.7599931 9.3397045,20.4170557 L9.3397045,12.260193 L14.7530071,24.4307501 L15.3813368,24.4307501 L20.0309771,12.260193 L20.0309771,21.9607844 C20.0309771,22.2197324 20.0309771,22.26953 19.8666448,22.4388422 L18.1943209,24.1120449 L18.1943209,24.4705882 L26.3142748,24.4705882 L26.3142748,24.1120449 L24.6999506,22.4786804 C24.5574447,22.3667306 24.4867545,22.1827335 24.516285,22.0006225 L24.516285,9.99937753 C24.4867545,9.81726653 24.5574447,9.63326931 24.6999506,9.52131964 L26.3529412,7.88795518 L26.3529412,7.52941176 L20.6303071,7.52941176 L16.5509969,18.0168067 L11.9110232,7.52941176 L5.90805734,7.52941176 L5.90805734,7.88795518 L7.84137969,10.2882042 C8.03117521,10.4645082 8.12810368,10.7234193 8.10237821,10.9853719 Z"/>
</svg>
