<svg width="32" height="32" viewBox="0 0 32 32" xmlns="http://www.w3.org/2000/svg">
  <path fill="currentColor" d="M21.3222893,5.4011501 C22.3130774,5.36456715 23.3038655,5.39200436 24.2977022,5.39200436 L24.7062117,5.39200436 L24.7062117,0.233809056 C24.1788076,0.181983217 23.6239663,0.105768747 23.0691249,0.0783315382 C22.0539482,0.0326028565 21.0357229,-0.0161744041 20.0174976,0.00516564739 C18.4627224,0.038700014 16.9933074,0.416723783 15.7068072,1.33739458 C14.2343436,2.39829999 13.4264702,3.88600644 13.1185638,5.64198782 C12.9905235,6.36450099 12.9569891,7.11749995 12.9386976,7.85525602 C12.9112604,9.01371596 12.9356491,10.1660787 12.9356491,11.3245387 L12.9356491,11.7604854 L8,11.7604854 L8,17.5222993 L12.9051633,17.5222993 L12.9051633,32 L18.9017177,32 L18.9017177,17.5436394 L23.7916381,17.5436394 C24.0416216,15.6260833 24.2855079,13.7298673 24.5415885,11.7574369 C24.1483218,11.7574369 23.7977353,11.7543883 23.4441001,11.7574369 C22.0539482,11.763534 18.8620862,11.7574369 18.8620862,11.7574369 C18.8620862,11.7574369 18.8742805,8.90091854 18.9078149,7.66319556 C18.9565922,5.96818575 19.9626232,5.44992736 21.3222893,5.4011501"/>
</svg>
