<svg width="32" height="32" viewBox="0 0 32 32" xmlns="http://www.w3.org/2000/svg">
  <path fill="currentColor" d="M4.57856.03264C6.59456.03264 8.23616 1.67424 8.23616 3.68704 8.23616 5.70304 6.59456 7.34464 4.57856 7.34464 2.55616 7.34464.92096 5.70304.92096 3.68704.92096 1.67424 2.55616.03264 4.57856.03264zM1.42016 30.39424L7.73376 30.39424 7.73376 10.11264 1.42016 10.11264 1.42016 30.39424zM11.6912 10.11392L17.7392 10.11392 17.7392 12.88512 17.8224 12.88512C18.664 11.29152 20.7216 9.61152 23.7904 9.61152 30.1712 9.61152 31.352 13.80672 31.352 19.26912L31.352 30.39552 25.0512 30.39552 25.0512 20.53632C25.0512 18.18112 25.0032 15.15712 21.7744 15.15712 18.4912 15.15712 17.992 17.71712 17.992 20.36032L17.992 30.39552 11.6912 30.39552 11.6912 10.11392z"/>
</svg>
