<svg width="32" height="32" viewBox="0 0 32 32" xmlns="http://www.w3.org/2000/svg">
  <path fill="currentColor" fill-rule="evenodd" d="M23.4812287,26.8547592 C22.9988623,23.4872962 22.176716,20.4201744 21.2059158,17.7080015 C23.6420174,17.3439515 26.2540766,17.459234 29.0269245,18.0599166 C28.4565794,21.6973834 26.3875616,24.8433826 23.4812287,26.8547592 M8.19112628,26.6211604 C8.9616989,25.362154 10.4330679,23.2992036 12.7356845,21.4486159 C14.492226,20.0379219 16.3974213,19.003413 18.4482366,18.3481229 C19.5221843,21.2817596 20.3928707,24.6037163 20.826697,28.2745544 C19.331058,28.863102 17.7049678,29.1907471 16,29.1907471 C13.081532,29.1907471 10.3814941,28.2320819 8.19112628,26.6211604 M2.81532044,16.0030338 C2.81532044,15.8483125 2.81532044,15.696625 2.82138794,15.5479712 C3.17633675,15.5570724 3.57982556,15.5631399 4.02882063,15.5631399 C5.97648843,15.5631399 8.75843762,15.4417899 11.7921881,14.9351536 C13.4668184,14.6560485 15.0383011,14.285931 16.5036026,13.8278347 C16.8100114,14.443686 17.1073189,15.0838074 17.4015927,15.7512325 C14.7349261,16.6279863 12.5991657,17.9476678 10.9700417,19.2552143 C8.62798635,21.1391733 7.0383011,23.2142586 6.08570345,24.6856276 C4.05005688,22.3648085 2.81532044,19.3280243 2.81532044,16.0030338 M10.0781191,4.22298066 C11.076223,5.32119833 13.0997345,7.73606371 15.1475161,11.294653 C10.5058779,12.6355707 5.72165339,12.778157 3.221843,12.7387182 C4.17444065,9.01327266 6.71672355,5.91884717 10.0781191,4.22298066 M24.3458476,5.80053091 C22.649981,7.86348123 20.3473644,9.32574896 17.8566553,10.3541904 C17.580584,9.85362154 17.3045127,9.38642397 17.0345089,8.94653015 C15.4751612,6.370876 13.9764884,4.43230944 12.911642,3.18240425 C13.9036784,2.94273796 14.9381873,2.81532044 16,2.81532044 C19.1642017,2.81532044 22.0705347,3.93477436 24.3458476,5.80053091 M26.3268866,7.81190747 C27.9620781,9.86879029 28.996587,12.4262419 29.1634433,15.2112249 C25.7535078,14.5377323 22.7561623,14.5802048 20.1623057,15.0474024 C19.8346606,14.2768297 19.500948,13.5456959 19.161168,12.850967 C22.1312097,11.5798256 24.5460751,9.88699279 26.3268866,7.81190747 M16,0 C7.17785362,0 0,7.18088737 0,16.0030338 C0,24.8251801 7.17785362,32 16,32 C24.8221464,32 32,24.8251801 32,16.0030338 C32,7.18088737 24.8221464,0 16,0"/>
</svg>
