<svg width="32" height="32" viewBox="0 -6 32 32" xmlns="http://www.w3.org/2000/svg" preserveAspectRatio="xMidYMid meet">
  <g fill="currentColor">
    <path d="M4.70239885 7.88593778C4.73836731 7.88850695 4.75892072 7.89107613 4.78461247 7.89107613 6.15655226 7.89107613 7.53106122 7.89878366 8.90557018 7.88850695 9.52987986 7.8833686 10.1413437 7.78060158 10.7065623 7.48000803 11.1227687 7.2616281 11.3873938 6.92249692 11.5107143 6.47032201 11.6186196 6.08751484 11.6288963 5.69700014 11.580082 5.30648545 11.49273 4.56913204 11.0611085 4.06557362 10.3520161 3.8677471 9.72256803 3.69304315 9.08027412 3.63652129 8.43284186 3.63395211 7.22789849 3.62624459 6.0255243 3.63138294 4.82058093 3.63138294 4.7820433 3.63138294 4.74350566 3.63395211 4.70239885 3.63652129L4.70239885 7.88593778zM4.70239885 16.2306202C4.74350566 16.2306202 4.77433577 16.2357586 4.80773505 16.2357586 6.15912143 16.2357586 7.51564616 16.2434661 8.86703254 16.2306202 9.27553147 16.2229127 9.69173792 16.1843751 10.0925293 16.1047306 11.0636777 15.9120424 11.682849 15.3262704 11.9089365 14.3525528 11.9937193 13.9928682 12.0091343 13.6306145 11.9937193 13.2683607 11.9551816 12.33575 11.4516232 11.6497801 10.5755343 11.3363406 10.1259286 11.1744826 9.65833864 11.1051148 9.18561032 11.0999765 7.71090351 11.0896998 6.2361967 11.092269 4.76148989 11.092269 4.74350566 11.092269 4.72552143 11.0974073 4.70239885 11.0999765L4.70239885 16.2306202zM.247448315 19.5833944L.247448315.288885448C.278278423.286316272.30910853.278608746.339938638.278608746 3.46662538.281177921 6.59331211.270901219 9.71999885.286316272 10.7502383.288885448 11.7599243.448174337 12.7079501.874657491 14.257163 1.56576573 15.148667 2.76300158 15.3927386 4.43553491 15.5211974 5.32960803 15.4723831 6.21083527 15.164082 7.06893993 14.8557809 7.93732129 14.2597322 8.56420014 13.4709953 9.01637505 13.3528132 9.08317362 13.2346311 9.14997219 13.1036032 9.22447828 13.1652634 9.25017004 13.2166469 9.27329262 13.2680304 9.29384602 14.7709981 9.90017147 15.6676404 11.0126245 15.9605265 12.5926675 16.202029 13.8772553 16.0864161 15.1387206 15.4980748 16.3256797 14.6451085 18.0393199 13.2680304 19.0695593 11.3694096 19.3881371 10.5524118 19.5217342 9.73284473 19.5885328 8.91070853 19.5859636 6.07690781 19.5833944 3.24567627 19.5833944.414444731 19.5833944L.247448315 19.5833944zM27.5089709 10.6961021C27.5115401 10.6704103 27.5141092 10.6524261 27.5115401 10.6344419 27.4986942 10.5008447 27.4832791 10.3672476 27.4627257 10.2362196 27.2854526 9.17515011 26.7125265 8.41467412 25.710548 8.00360602 25.1915745 7.78779527 24.6469092 7.74411928 24.0893981 7.78008774 22.9435458 7.85459384 22.1188404 8.41210495 21.6461121 9.46546695 21.5176533 9.74293792 21.4457164 10.0486698 21.3532261 10.344125 21.322396 10.4571687 21.3121193 10.5727816 21.2889967 10.6961021L27.5089709 10.6961021zM31.2676748 13.0905738L21.1965064 13.0905738C21.2170598 13.2961078 21.2324748 13.4913652 21.2581666 13.6840533 21.3069809 14.0719989 21.4071788 14.4522368 21.5793135 14.8093523 22.0314885 15.7471014 22.8022411 16.253229 23.7990813 16.4484863 24.3591616 16.56153 24.9243802 16.56153 25.4844605 16.443348 26.3143042 16.2660748 26.9206297 15.7933465 27.3291286 15.0508548 27.3753738 14.9712103 27.4216189 14.9429494 27.5141092 14.9429494 28.6599616 14.9455186 29.8032447 14.9455186 30.9465279 14.9455186L31.0929709 14.9455186C31.0467257 15.1382067 31.0133265 15.3206182 30.9619429 15.4953222 30.7512705 16.1967071 30.3376333 16.7747716 29.8623358 17.3142985 28.8243888 18.4935501 27.5038325 19.1332748 25.9674655 19.3593623 24.7573838 19.5366354 23.5498713 19.5109437 22.3680505 19.1692433 21.132277 18.8121279 20.0378082 18.2058024 19.1488734 17.2706225 18.4320734 16.5178541 18.0210053 15.5903816 17.8077637 14.5832648 17.4300949 12.8079644 17.4249566 11.0300949 17.9619143 9.28819384 18.7275286 6.82949276 20.4334612 5.38818523 22.946115 4.91802609 24.5004662 4.62770925 26.0342641 4.76387556 27.5115401 5.37277018 28.8809107 5.93285047 29.8315057 6.93739814 30.494353 8.237401 30.9234053 9.07752143 31.1546311 9.98187125 31.2137222 10.9196204 31.254829 11.6055903 31.254829 12.2992677 31.2728132 12.9903759 31.2728132 13.0186368 31.270244 13.0468978 31.2676748 13.0905738z"/>
    <polygon points="20.5 3.309 28.259 3.309 28.259 1.085 20.5 1.085"/>
  </g>
</svg>
