<svg width="141" height="35" viewBox="0 0 141 35" xmlns="http://www.w3.org/2000/svg" >
  <g fill-rule="evenodd">
    <polygon fill="#FFF" points="119.337 2.902 114.903 2.902 114.904 27.797 119.337 27.797"/>
    <path fill="#FFF" d="M127.395908 17.2594692C127.805138 14.5650077 129.646677 12.8602385 132.272215 12.8602385 135.035062 12.8602385 136.842677 14.5650077 136.944446 17.2594692L127.395908 17.2594692zM132.238292 9.4157C126.781523 9.4157 122.962215 13.1671615 122.962215 18.7262385 122.962215 24.2163923 126.679754 27.9678538 132.341138 27.9678538 135.5466 27.9678538 138.206062 26.8080077 140.014215 24.8302385L137.626677 22.3409308C136.331138 23.6703923 134.591369 24.3865462 132.715908 24.3865462 130.055369 24.3865462 128.0776 22.8185462 127.497677 20.2263923L140.968908 20.2263923C141.411523 13.6108538 138.649215 9.4157 132.238292 9.4157zM38.2400308 9.38183077C35.2731077 9.41521538 32.9878769 10.5406 31.6923385 12.9620615L31.6923385 9.55198462 27.2586462 9.55198462 27.2586462 27.7972154 31.6923385 27.7972154 31.6923385 18.8286C31.6923385 15.8272154 33.4654923 13.6109077 36.4668769 13.5764462 38.9906462 13.5764462 40.5247231 15.1449846 40.5247231 17.7032154L40.5247231 27.7972154 44.9923385 27.7972154 44.9923385 16.4071385C44.9923385 12.0762923 42.4346462 9.38183077 38.2400308 9.38183077"/>
    <polygon fill="#FFF" points="49.025 27.797 53.458 27.797 53.458 9.552 49.025 9.552"/>
    <path fill="#FFF" d="M81.3963769 9.38183077C78.1903769 9.41521538 75.8028385 10.7802154 74.6096077 13.7466 73.7566846 10.9848308 71.5403769 9.38183077 68.3343769 9.38183077 65.4353 9.41521538 63.1850692 10.5072154 61.9234538 12.9281385L61.9234538 9.55198462 57.4903 9.55198462 57.4903 27.7972154 61.9234538 27.7972154 61.9234538 18.7941385C61.9234538 15.8272154 63.6626846 13.6442923 66.5612231 13.5425231 69.0166077 13.5425231 70.5173 15.1110615 70.5173 17.7032154L70.5173 27.7972154 74.9849154 27.7972154 74.9849154 18.7941385C74.9849154 15.8272154 76.7236077 13.6442923 79.5887615 13.5425231 82.0436077 13.5425231 83.5787615 15.1110615 83.5787615 17.7032154L83.5787615 27.7972154 88.0469154 27.7972154 88.0469154 16.4071385C88.0469154 12.0762923 85.5226077 9.38183077 81.3963769 9.38183077M101.661215 24.1485462C98.6259077 24.1485462 96.5119077 21.8972385 96.5119077 18.6233923 96.5119077 15.4179308 98.6259077 13.1332385 101.661215 13.1332385 104.662062 13.1332385 106.7766 15.4179308 106.7766 18.6233923 106.7766 21.8633154 104.662062 24.1485462 101.661215 24.1485462M102.650369 9.4157C99.9225231 9.4157 97.8074462 10.5410846 96.5119077 12.5533154L96.5119077 2.90193077 92.0782154 2.90193077 92.0782154 27.7971615 96.5119077 27.7971615 96.5119077 24.8302385C97.8419077 26.8424692 99.9559077 27.9678538 102.718215 27.9678538 107.902523 27.9678538 111.278138 24.2503154 111.278138 18.7596231 111.278138 13.1671615 107.799677 9.4157 102.650369 9.4157"/>
    <polygon fill="#E20041" points="49.025 7.335 53.458 7.335 53.458 2.902 49.025 2.902"/>
    <polygon fill="#F14321" points="0 14.168 6.815 14.168 6.815 7.353 0 7.353"/>
    <polygon fill="#F86410" points="6.815 7.353 13.629 14.168 6.815 14.168"/>
    <polygon fill="#E92131" points="0 20.983 6.815 20.983 6.815 14.168 0 14.168"/>
    <polygon fill="#E20041" points="0 34.612 6.815 34.612 6.815 27.797 0 27.797"/>
    <polygon fill="#F14321" points="6.815 20.983 13.63 20.983 13.63 14.168 6.815 14.168"/>
    <polygon fill="#F86410" points="13.63 20.983 20.444 20.983 20.444 14.168 13.63 14.168"/>
    <polygon fill="#FF8500" points="13.63 7.353 20.444 7.353 20.444 .538 13.63 .538"/>
    <polygon fill="#E92131" points="6.815 20.983 13.629 20.983 13.629 27.797"/>
    <polygon fill="#F14321" points="13.63 27.797 20.444 27.797 20.444 20.983 13.63 20.983"/>
  </g>
</svg>
